<svg xmlns="http://www.w3.org/2000/svg" xmlns:xlink="http://www.w3.org/1999/xlink" version="1.1" x="0px" y="0px" viewBox="0 0 100 100" style="enable-background:new 0 0 100 100;" xml:space="preserve">
<path fill="currentColor" d="M92.1682205,38.2647781c-0.4943771-0.4770737-1.534523-1.4797554-2.0381241-1.9355736  c-2.4850998-2.3199425-4.0546417-5.2462616-4.6255112-8.5565128c-0.1404572-0.6542969-0.3288269-1.3568192-0.6038055-1.993906  c-0.0050583-0.0121994-0.0092392-0.0246143-0.0144653-0.036726c-0.0688324-0.1479015-0.1448059-0.2836056-0.2242737-0.4132957  c-0.0393753-0.0637779-0.0778885-0.1270351-0.1214523-0.1877632c-0.6487656-0.9284477-1.5786057-1.3328133-2.5065308-1.3370838  c-0.0339813-0.0010452-0.0656967-0.0101051-0.100029-0.0101051c-0.9388962,0-1.7756882,0.4097652-2.3629379,1.0519962  c-0.5412445,0.5618515-0.8793106,1.3210945-0.8489838,2.2064133v38.3178482  c-3.3412323-1.0526047-7.5908661-0.9110641-11.810524,0.6583557c-4.6018143,1.7112122-8.224987,4.7983704-9.6922417,8.2577438  c-0.9389038,2.2130814-0.9709663,4.4428864-0.094101,6.4482498c1.5334702,3.5053787,5.608326,5.4640427,10.461071,5.4640427  c2.278595,0,4.7293625-0.4321671,7.1675873-1.3390045c4.6018066-1.7112122,8.2249832-4.7983704,9.6922379-8.2577438  c0.5842896-1.3772049,0.7019119-2.7716599,0.6998215-4.1118011V40.6345139  c0.8984756,0.7883873,1.8434753,1.5204926,2.7851715,2.2094193c6.7115479,5.22509,5.9181595,15.1650391,3.5146103,22.5988922  c-0.3190613,1.0273895,1.1377335,1.6590729,1.6817703,0.7399063C98.3371277,57.7346497,99.8908157,45.8590393,92.1682205,38.2647781  z"/><path fill="currentColor" d="M44.48246,36.816082c-7.2693558,0-13.1836815,5.9143219-13.1836815,13.1836777S37.2131042,63.1834412,44.48246,63.1834412  s13.1836777-5.9143257,13.1836777-13.1836815S51.7518158,36.816082,44.48246,36.816082z M44.4826317,57.725193  c-4.2666245,0-7.7253876-3.4587631-7.7253876-7.7253876s3.4587631-7.7254333,7.7253876-7.7254333  s7.7253914,3.4588089,7.7253914,7.7254333S48.7492599,57.725193,44.4826317,57.725193z"/><path fill="currentColor" d="M54.5118027,81.8801651c-1.1991577-2.7480011-1.1705818-5.7529144,0.0785027-8.7078934  c1.7701149-4.1683502,6.0027618-7.8370895,11.3274803-9.8213692c3.3475037-1.2419395,6.7735901-1.7272911,9.9497986-1.4417686  V27.0918198c-0.0357285-1.3204403,0.37117-2.5766678,1.1491394-3.6259193  C69.3152084,14.037138,57.6023598,8.0129871,44.4835052,8.0129871c-4.1755753,0-8.2154045,0.6066809-12.0198097,1.7487259  c-2.148428,0.6352139-4.2254124,1.4489117-6.2168331,2.4124727c-1.1705818,0.5639-2.3197269,1.1848688-3.4260921,1.8486614  c-3.9614105,2.3910837-7.4873505,5.41747-10.4493942,8.9363108c-1.0135727,1.1919689-1.955699,2.4481964-2.8265553,3.7543926  c-1.3347311,1.9913788-2.4981647,4.1041279-3.4760122,6.3239174C3.7705169,38.2193832,2.5,43.9580116,2.5,49.9964485  c0,23.1901131,18.7933979,41.9905663,41.9835052,41.9905663c6.216835,0,12.1125145-1.3632584,17.4228554-3.7900772  C58.4517822,87.0763321,55.8250999,84.8851242,54.5118027,81.8801651z M13.3027868,43.6623383  c-0.1394081,0.6747284-0.7339773,1.1389503-1.3968515,1.1389503c-0.0954943,0-0.1923809-0.0090599-0.2899704-0.029274  c-0.7723083-0.1596222-1.2685995-0.9152069-1.1096716-1.686821c2.8243761-13.6702061,13.4827032-24.3292313,27.1550026-27.1543064  c0.7695236-0.1624079,1.5271988,0.3380623,1.686821,1.1096764c0.1596184,0.771616-0.337368,1.5272007-1.1096802,1.686821  C25.6834831,21.321043,15.89575,31.1087761,13.3027868,43.6623383z M20.87047,43.7445869  c-0.1714687,0.6370888-0.7479153,1.0573997-1.3780327,1.0573997c-0.1226768,0-0.2474461-0.0160332-0.3715191-0.0494881  c-0.7611599-0.2049294-1.2121391-0.9883919-1.007906-1.7495537c2.5427723-9.4545555,10.0010242-16.9128036,19.4653378-19.4646416  c0.7625542-0.2091084,1.5446243,0.2453575,1.7495499,1.0065174c0.2056274,0.761158-0.2453537,1.5446224-1.0065117,1.7495518  C29.8364048,28.5827293,23.1490707,35.2693672,20.87047,43.7445869z M28.445303,49.9964485  c0-2.3054771,0.4853096-4.4967308,1.3703651-6.4738235c0.371172-0.8493767,0.8207569-1.6630745,1.3275852-2.4196587  c0.335535-0.4996452,0.6924152-0.9707069,1.0849304-1.4275246c1.1205711-1.3490219,2.4767342-2.5053101,3.9899063-3.4118004  c0.4211807-0.2569466,0.8493347-0.4925003,1.2990952-0.7137642c0.7565422-0.3639793,1.5559502-0.6780396,2.3767929-0.9207344  c1.4560165-0.4353828,2.9978523-0.6709366,4.5895271-0.6709366c8.8434296,0,16.0382004,7.1947289,16.0382004,16.0382423  c0,8.8506203-7.1947708,16.0453529-16.0382004,16.0453529C35.6399002,66.0418015,28.445303,58.8470688,28.445303,49.9964485z"/></svg>